<?xml version="1.0" encoding="utf-8"?>
<!-- Generator: Adobe Illustrator 17.1.0, SVG Export Plug-In . SVG Version: 6.00 Build 0)  -->
<!DOCTYPE svg PUBLIC "-//W3C//DTD SVG 1.1//EN" "http://www.w3.org/Graphics/SVG/1.1/DTD/svg11.dtd">
<svg version="1.1" id="Layer_1" xmlns="http://www.w3.org/2000/svg" xmlns:xlink="http://www.w3.org/1999/xlink" x="0px" y="0px"
	 viewBox="0 0 90 33" enable-background="new 0 0 90 33" xml:space="preserve">
<g>
	<path fill="#CCCCCC" d="M0,0h7.4v18.9h10.8v6.3H0V0z"/>
	<path fill="#CCCCCC" d="M28.2,25.8c-1.5,0-2.9-0.2-4.1-0.7c-1.2-0.5-2.2-1.1-3.1-2c-0.9-0.8-1.5-1.9-2-3c-0.5-1.2-0.7-2.4-0.7-3.8
		c0-1.4,0.2-2.6,0.7-3.8c0.5-1.2,1.1-2.2,2-3c0.9-0.9,1.9-1.5,3.1-2c1.2-0.5,2.6-0.7,4.1-0.7c1.5,0,2.9,0.2,4.1,0.7
		c1.2,0.5,2.2,1.2,3.1,2c0.8,0.9,1.5,1.9,2,3c0.5,1.2,0.7,2.4,0.7,3.8c0,1.4-0.2,2.6-0.7,3.8c-0.5,1.2-1.1,2.2-2,3
		c-0.8,0.8-1.9,1.5-3.1,2C31.1,25.6,29.8,25.8,28.2,25.8z M28.2,21.4c1,0,1.8-0.5,2.3-1.4c0.5-0.9,0.8-2.2,0.8-3.7
		c0-1.5-0.3-2.8-0.8-3.7c-0.5-0.9-1.3-1.4-2.3-1.4c-1,0-1.8,0.5-2.3,1.4c-0.5,0.9-0.7,2.2-0.7,3.7c0,1.5,0.2,2.8,0.7,3.7
		S27.1,21.4,28.2,21.4z"/>
	<path fill="#CCCCCC" d="M47.8,31.5c-2.5,0-4.6-0.5-6.3-1.5c-1.6-1-2.6-2.5-2.9-4.5h6.4c0.1,0.4,0.4,0.7,0.8,1
		c0.4,0.3,1.1,0.5,1.9,0.5c1.1,0,1.8-0.3,2.3-0.9c0.4-0.6,0.6-1.3,0.6-2.3v-1.6h-0.1c-0.5,0.6-1.2,1.1-1.9,1.5
		c-0.7,0.4-1.6,0.6-2.7,0.6c-1,0-2-0.2-2.9-0.5c-0.9-0.4-1.7-0.9-2.4-1.6c-0.7-0.7-1.3-1.6-1.7-2.7c-0.4-1.1-0.6-2.3-0.6-3.7
		c0-1.3,0.2-2.5,0.5-3.6c0.4-1.1,0.8-2.1,1.5-2.9c0.6-0.8,1.4-1.5,2.3-1.9c0.9-0.5,1.9-0.7,3-0.7c1.3,0,2.3,0.2,3.1,0.7
		c0.8,0.5,1.5,1.1,2,1.9h0.1v-2h6.4v15.9c0,1.5-0.2,2.7-0.7,3.8c-0.5,1.1-1.1,2-1.9,2.6c-0.8,0.7-1.8,1.2-3,1.5
		C50.4,31.4,49.2,31.5,47.8,31.5z M47.8,19.7c1,0,1.7-0.4,2.3-1.2c0.5-0.8,0.8-1.8,0.8-3c0-1.1-0.3-2.1-0.8-2.9
		c-0.5-0.8-1.3-1.2-2.3-1.2c-0.9,0-1.7,0.4-2.2,1.1c-0.6,0.7-0.8,1.7-0.8,2.9c0,1.2,0.3,2.2,0.8,3C46.2,19.3,46.9,19.7,47.8,19.7z"
		/>
	<path fill="#CCCCCC" d="M68,25.8c-1.5,0-2.9-0.2-4.1-0.7c-1.2-0.5-2.2-1.1-3.1-2c-0.9-0.8-1.5-1.9-2-3c-0.5-1.2-0.7-2.4-0.7-3.8
		c0-1.4,0.2-2.6,0.7-3.8c0.5-1.2,1.1-2.2,2-3c0.9-0.9,1.9-1.5,3.1-2C65.2,7,66.5,6.7,68,6.7c1.5,0,2.9,0.2,4.1,0.7
		c1.2,0.5,2.2,1.2,3.1,2c0.8,0.9,1.5,1.9,2,3c0.5,1.2,0.7,2.4,0.7,3.8c0,1.4-0.2,2.6-0.7,3.8c-0.5,1.2-1.1,2.2-2,3
		c-0.8,0.8-1.9,1.5-3.1,2C70.9,25.6,69.6,25.8,68,25.8z M68,21.4c1,0,1.8-0.5,2.3-1.4c0.5-0.9,0.8-2.2,0.8-3.7
		c0-1.5-0.3-2.8-0.8-3.7c-0.5-0.9-1.3-1.4-2.3-1.4s-1.8,0.5-2.3,1.4c-0.5,0.9-0.7,2.2-0.7,3.7c0,1.5,0.2,2.8,0.7,3.7
		C66.2,20.9,66.9,21.4,68,21.4z"/>
	<path fill="#CCCCCC" d="M79.7,0.8h-1.9V0h4.8v0.8h-1.9v5.1h-1V0.8z M83.5,0h1.4l1.5,4.7h0L87.9,0h1.4v5.9h-0.9V1.2h0
		c-0.1,0.2-0.1,0.4-0.2,0.6C88.2,2,88.1,2.2,88,2.4C88,2.6,87.9,2.8,87.8,3l-0.9,2.9H86L85,3c-0.1-0.2-0.1-0.4-0.2-0.6
		c-0.1-0.2-0.1-0.4-0.2-0.6c-0.1-0.2-0.1-0.4-0.2-0.7h0v4.8h-0.9V0z"/>
</g>
</svg>
