<?xml version="1.0" encoding="utf-8"?>
<!-- Generator: Adobe Illustrator 16.0.0, SVG Export Plug-In . SVG Version: 6.00 Build 0)  -->
<!DOCTYPE svg PUBLIC "-//W3C//DTD SVG 1.1//EN" "http://www.w3.org/Graphics/SVG/1.1/DTD/svg11.dtd">
<svg version="1.1" id="Layer_1" xmlns="http://www.w3.org/2000/svg" xmlns:xlink="http://www.w3.org/1999/xlink" x="0px" y="0px"
	 width="144px" height="30px" viewBox="0 0 144 30" enable-background="new 0 0 144 30" xml:space="preserve">
<g>
	<path fill="#4E3687" d="M38.662,0.471c9.162,0,13.048,7.654,13.048,14.674c0,7.019-3.886,14.633-13.048,14.633
		c-9.161,0-13.046-7.614-13.046-14.633S29.5,0.471,38.662,0.471 M38.662,1.7c-6.9,0-7.812,6.543-7.812,13.444
		c0,6.9,0.913,13.403,7.812,13.405c6.899,0,7.812-6.505,7.812-13.404C46.474,8.245,45.561,1.7,38.662,1.7"/>
	<path fill="#4E3687" d="M70.501,25.57h-0.08c-1.23,2.7-3.608,4.209-6.861,4.209c-3.886,0-5.829-1.628-5.829-5.593V10.863h-3.133
		V9.87h7.178v14.118c0,2.183,0.396,4.364,3.172,4.364c3.688,0,5.553-3.491,5.553-7.181V10.863H66.89V9.87h7.656v18.44h3.411v0.991
		h-7.456V25.57z"/>
	<path fill="#4E3687" d="M83.998,28.31V10.863H80.59V9.87h7.455v3.728h0.077c1.231-2.697,3.609-4.204,6.861-4.204
		c3.886,0,5.829,1.627,5.829,5.592V28.31h3.133v0.991h-10.31V28.31h3.133V15.183c0-2.18-0.396-4.361-3.171-4.361
		c-3.688,0-5.553,3.489-5.553,7.178v10.31h3.133v0.991H80.59V28.31H83.998z"/>
	<path fill="#4E3687" d="M123.204,23.156c-1.865,5.232-5.038,6.621-8.647,6.621c-5.789,0-9.239-4.838-9.239-10.189
		c0-5.634,3.964-10.194,9.519-10.194c3.688,0,7.813,2.182,7.813,5.592c0,1.588-0.915,2.182-2.103,2.182
		c-1.43,0-1.942-0.994-1.942-2.064c0-0.555,0.076-0.91,0.076-1.266c0-2.184-1.347-3.454-3.804-3.454
		c-3.928,0-5.038,4.007-5.038,9.204c0,3.13,0.318,8.961,5.869,8.961c3.609,0,5.431-2.222,6.623-5.71L123.204,23.156z"/>
	<path fill="#4E3687" d="M130.69,18.355v0.318c0,5.552,0.753,9.875,5.87,9.875c3.607,0,5.431-2.222,6.461-5.079l0.875,0.319
		c-1.707,4.6-4.401,5.988-8.767,5.988c-5.948,0-8.961-4.602-8.961-10.192c0-5.354,3.45-10.191,9.24-10.191
		c5.075,0,8.526,3.648,8.526,8.962H130.69z M139.177,17.127c0-2.856-0.159-6.743-4.206-6.743c-3.407,0-4.28,4.285-4.28,6.743
		H139.177z"/>
	<path fill="#6D6E71" d="M0.306,14.227h0.985v-1.897h1.457v1.897h1.585v0.356H2.748v4.97c0,0.84,0.171,1.239,0.756,1.239
		c0.542,0,0.771-0.399,0.999-0.854l0.329,0.143l-0.128,0.255c-0.286,0.515-0.772,0.972-1.799,0.972
		c-1.486,0-1.614-0.843-1.614-1.755v-4.97H0.306V14.227z"/>
	<path fill="#6D6E71" d="M6.821,20.866v-9.496H5.595v-0.354h2.683v4.553h0.029c0.443-0.971,1.299-1.513,2.47-1.513
		c1.4,0,2.099,0.586,2.099,2.012v4.798h1.128v0.355H10.29v-0.355h1.129v-4.728c0-0.785-0.143-1.569-1.143-1.569
		c-1.328,0-1.999,1.258-1.999,2.585v3.712h1.129v0.355H5.595v-0.355H6.821z"/>
	<path fill="#6D6E71" d="M16.624,17.282v0.112c0,1.998,0.271,3.556,2.112,3.556c1.299,0,1.956-0.799,2.327-1.828l0.313,0.114
		c-0.613,1.656-1.585,2.156-3.154,2.156c-2.141,0-3.227-1.656-3.227-3.669c0-1.927,1.242-3.667,3.327-3.667
		c1.827,0,3.069,1.314,3.069,3.226H16.624z M19.679,16.839c0-1.028-0.058-2.426-1.513-2.426c-1.229,0-1.542,1.541-1.542,2.426
		H19.679z"/>
</g>
</svg>
